<svg width="55" height="55" viewBox="0 0 55 55" fill="none" xmlns="http://www.w3.org/2000/svg">
<g clip-path="url(#clip0_143_25)">
<path d="M20.625 0.955743C20.9597 1.3639 21.1647 1.8628 21.2137 2.38836C21.2627 2.91392 21.1535 3.44212 20.9 3.90512C18.9115 7.5535 17.8736 11.6438 17.8819 15.7989C17.8819 29.6211 29.15 40.8136 43.0375 40.8136C44.8525 40.8113 46.6091 40.6279 48.3072 40.2636C48.8267 40.1524 49.3673 40.1961 49.8623 40.3892C50.3572 40.5823 50.7846 40.9162 51.0916 41.3498C51.4163 41.801 51.5821 42.3473 51.5628 42.9029C51.5435 43.4585 51.3403 43.9919 50.985 44.4195C48.2887 47.7311 44.8875 50.3994 41.0293 52.2298C37.171 54.0602 32.9529 55.0066 28.6825 55.0001C12.8356 55.0001 0 42.2332 0 26.5032C0 14.6645 7.26688 4.51012 17.6138 0.206368C18.129 -0.0126005 18.7015 -0.0579112 19.2447 0.0772836C19.788 0.212478 20.2725 0.520831 20.625 0.955743ZM16.6994 4.50668C12.7211 6.64107 9.39526 9.81331 7.07531 13.6863C4.75536 17.5594 3.52794 21.9885 3.52344 26.5032C3.52344 40.322 14.795 51.5145 28.6825 51.5145C32.008 51.5195 35.3015 50.8653 38.3726 49.5896C41.4436 48.314 44.2314 46.4423 46.5747 44.0826C45.4151 44.227 44.236 44.2992 43.0375 44.2992C27.1906 44.2992 14.3584 31.5323 14.3584 15.8023C14.3584 11.7907 15.1903 7.97168 16.6994 4.50668Z" fill="#075D97"/>
<path d="M37.1051 10.8212C37.1544 10.6724 37.2494 10.5428 37.3765 10.451C37.5036 10.3592 37.6564 10.3098 37.8133 10.3098C37.9701 10.3098 38.1229 10.3592 38.25 10.451C38.3771 10.5428 38.4721 10.6724 38.5214 10.8212L39.8517 14.8156C40.4464 16.5962 41.842 17.9919 43.6226 18.5865L47.617 19.9169C47.7659 19.9661 47.8954 20.0611 47.9872 20.1882C48.079 20.3153 48.1285 20.4682 48.1285 20.625C48.1285 20.7818 48.079 20.9346 47.9872 21.0617C47.8954 21.1889 47.7659 21.2838 47.617 21.3331L43.6226 22.6634C42.7439 22.955 41.9454 23.4478 41.2908 24.1025C40.6361 24.7572 40.1433 25.5556 39.8517 26.4344L38.5214 30.4287C38.4721 30.5776 38.3771 30.7071 38.25 30.799C38.1229 30.8908 37.9701 30.9402 37.8133 30.9402C37.6564 30.9402 37.5036 30.8908 37.3765 30.799C37.2494 30.7071 37.1544 30.5776 37.1051 30.4287L35.7748 26.4344C35.4832 25.5556 34.9904 24.7572 34.3357 24.1025C33.6811 23.4478 32.8826 22.955 32.0039 22.6634L28.0095 21.3331C27.8606 21.2838 27.7311 21.1889 27.6393 21.0617C27.5475 20.9346 27.498 20.7818 27.498 20.625C27.498 20.4682 27.5475 20.3153 27.6393 20.1882C27.7311 20.0611 27.8606 19.9661 28.0095 19.9169L32.0039 18.5865C32.8826 18.2949 33.6811 17.8021 34.3357 17.1475C34.9904 16.4928 35.4832 15.6943 35.7748 14.8156L37.1051 10.8212ZM47.6548 0.340292C47.6888 0.242414 47.7523 0.157541 47.8367 0.0974728C47.9211 0.0374048 48.0222 0.00512695 48.1258 0.00512695C48.2293 0.00512695 48.3304 0.0374048 48.4148 0.0974728C48.4992 0.157541 48.5628 0.242414 48.5967 0.340292L49.4836 3.00092C49.8789 4.19029 50.8104 5.12185 51.9998 5.51717L54.6604 6.40404C54.7583 6.43798 54.8432 6.50156 54.9033 6.58597C54.9633 6.67037 54.9956 6.77139 54.9956 6.87498C54.9956 6.97857 54.9633 7.07959 54.9033 7.16399C54.8432 7.2484 54.7583 7.31198 54.6604 7.34592L51.9998 8.23279C51.4142 8.42873 50.8821 8.758 50.4454 9.19466C50.0088 9.63132 49.6795 10.1634 49.4836 10.749L48.5967 13.4097C48.5628 13.5075 48.4992 13.5924 48.4148 13.6525C48.3304 13.7126 48.2293 13.7448 48.1258 13.7448C48.0222 13.7448 47.9211 13.7126 47.8367 13.6525C47.7523 13.5924 47.6888 13.5075 47.6548 13.4097L46.7679 10.749C46.572 10.1634 46.2427 9.63132 45.8061 9.19466C45.3694 8.758 44.8373 8.42873 44.2517 8.23279L41.5911 7.34592C41.4932 7.31198 41.4083 7.2484 41.3482 7.16399C41.2882 7.07959 41.2559 6.97857 41.2559 6.87498C41.2559 6.77139 41.2882 6.67037 41.3482 6.58597C41.4083 6.50156 41.4932 6.43798 41.5911 6.40404L44.2517 5.51717C45.4411 5.12185 46.3726 4.19029 46.7679 3.00092L47.6548 0.340292Z" fill="#075D97"/>
</g>
<defs>
<clipPath id="clip0_143_25">
<rect width="55" height="55" fill="white"/>
</clipPath>
</defs>
</svg>
